<svg width="148" height="50" viewBox="0 0 148 50" fill="none" xmlns="http://www.w3.org/2000/svg">
<path d="M86.0285 11.0583C86.0285 10.4043 86.5636 9.92865 87.1581 9.92865C87.7526 9.92865 88.2877 10.4637 88.2877 11.0583C88.2877 11.6528 87.7526 12.1879 87.1581 12.1879C86.5636 12.1879 86.0285 11.6528 86.0285 11.0583ZM61.0582 11.2961V18.4304C61.0582 21.9382 63.0202 23.9001 66.5279 23.9001C70.0356 23.9001 72.057 21.9976 72.057 18.371V11.2961C72.057 10.5826 72.4138 9.8692 73.0083 9.45303L73.5434 9.09631H69.3222L69.9167 9.45303C70.5707 9.8692 70.9869 10.5826 70.9869 11.3555V17.9548C70.9869 19.5006 70.9869 22.83 67.063 22.83C63.1391 22.83 63.0202 20.1546 63.0202 17.9548V11.2366C63.0202 10.5232 63.3769 9.80975 63.9714 9.39358L64.4471 9.03686H59.5719L60.0475 9.39358C60.6421 9.80975 60.9988 10.4637 60.9988 11.2366L61.0582 11.2961ZM86.3258 16.5279V21.6409C86.3258 22.2949 86.0285 22.8894 85.5529 23.365L85.1962 23.6623H89.2984L88.9417 23.365C88.4066 22.9489 88.0499 22.2949 88.0499 21.5814V13.3769L85.1962 14.5065L85.6718 14.9227C86.088 15.3389 86.3258 15.9334 86.3258 16.5279ZM121.463 23.0083C120.392 23.0083 119.203 21.8787 118.847 21.0464L117.598 22.5327C118.252 23.3056 119.976 23.9596 121.225 23.9596C123.603 23.9596 125.327 22.7705 125.327 20.868C125.327 18.9655 124.435 18.6088 122.949 18.0143L121.938 17.5981C120.69 17.1225 119.857 16.5874 119.857 15.6361C119.857 14.6849 120.571 14.2687 121.522 14.2687C123.187 14.2687 123.96 15.9929 123.96 15.9929C124.316 15.3389 124.495 15.0416 124.911 14.2687C124.138 13.8526 123.008 13.3769 121.76 13.3769C119.56 13.3769 118.133 14.4471 118.133 16.2307C118.133 18.0143 119.501 18.6088 120.749 19.1439L121.819 19.56C122.83 19.9762 123.543 20.3924 123.543 21.3436C123.543 22.2949 122.77 23.0083 121.581 23.0083H121.463ZM91.082 16.1118L93.9358 23.6029H95.2437L98.2164 16.1118C98.3947 15.6361 98.692 15.1605 98.9893 14.7443C99.346 14.3282 99.7027 13.9715 100.119 13.6742H96.8489C97.2651 14.2687 97.384 15.0416 97.1462 15.6956L95.2437 20.7491C95.1248 21.0464 95.0059 21.4031 94.9465 21.7004C94.887 21.4031 94.7681 21.1058 94.6492 20.7491L92.6872 15.6956C92.5683 15.4578 92.5683 15.1605 92.5683 14.9227C92.5683 14.4471 92.6872 14.0309 92.9845 13.6147H89.0606C89.9524 14.2093 90.6064 15.1011 91.0226 16.1118H91.082ZM128.121 12.1879C128.775 12.1879 129.251 11.6528 129.251 11.0583C129.251 10.4637 128.716 9.92865 128.121 9.92865C127.527 9.92865 126.992 10.4637 126.992 11.0583C126.992 11.6528 127.527 12.1879 128.121 12.1879ZM99.7622 17.063C100.357 14.9227 102.497 13.3175 104.697 13.3175C106.897 13.3175 108.858 14.8633 109.453 17.063C109.512 17.3603 109.631 17.717 109.631 18.0143H101.843C101.843 18.0737 101.843 18.1332 101.843 18.1926C101.843 18.1926 101.843 18.2521 101.843 18.3115C101.843 18.3115 101.843 18.371 101.843 18.4304C101.843 18.4899 101.843 18.4899 101.843 18.5493C101.843 18.5493 101.843 18.6088 101.843 18.6683C101.962 20.8086 103.27 22.5327 105.053 22.7111C105.113 22.7111 105.232 22.7111 105.291 22.7111C106.778 22.7111 108.086 21.5814 108.561 19.9762H109.512C108.977 22.2354 107.075 23.9001 104.756 23.9001C102.438 23.9001 99.5243 21.522 99.5243 18.6088C99.5243 15.6956 99.5243 18.2521 99.5243 18.0143C99.5243 17.6575 99.6432 17.3603 99.7027 17.063H99.7622ZM101.962 17.063H107.313C106.897 15.4578 106.124 14.3282 104.875 14.2093C104.816 14.2093 104.756 14.2093 104.637 14.2093C103.27 14.2093 102.378 15.3983 101.962 17.063ZM110.464 23.3056L110.107 23.6029H114.328L113.912 23.3056C113.317 22.8894 112.961 22.2354 112.961 21.4625V16.6468C114.744 14.9227 116.944 15.5767 116.944 15.5767V13.258C113.971 13.258 112.842 15.6361 112.842 15.6361L112.663 13.3769L110.226 14.5065L110.702 15.0416C111.058 15.4578 111.296 15.9929 111.296 16.5279V21.7004C111.296 22.3543 110.999 22.9489 110.523 23.4245L110.464 23.3056ZM100.773 38.585L98.6325 35.5529L100.713 32.937C101.248 32.283 101.902 31.629 102.556 31.0939L102.794 30.9156H99.1676C99.7622 31.4507 99.8811 32.3424 99.4054 32.9964C98.9298 33.6504 98.4542 34.2449 97.9786 34.8989L96.6706 32.937C96.2544 32.283 96.3139 31.4507 96.9084 30.9156H92.4494H92.5089C93.3412 31.5696 94.0547 32.283 94.6492 33.1153L96.7895 36.2069L94.7086 38.8823C94.1736 39.5957 93.5196 40.2497 92.8062 40.7848L92.6872 40.9037H96.2544C95.6004 40.3686 95.4221 39.4174 95.9572 38.7634C96.4328 38.1094 96.9084 37.5149 97.3246 36.8609L98.7515 38.9417C99.1676 39.5363 99.1082 40.3686 98.5731 40.9037H103.032C102.081 40.3092 101.308 39.4768 100.654 38.585H100.773ZM128.954 21.5814V13.3769L126.1 14.5065L126.575 14.9227C126.992 15.3389 127.229 15.9334 127.229 16.5279V21.6409C127.229 22.2949 126.932 22.8894 126.457 23.365L126.1 23.6623H130.202L129.845 23.365C129.31 22.9489 128.954 22.2949 128.954 21.5814ZM121.819 35.6718C121.819 35.6718 121.819 35.7313 121.819 35.7907C121.819 35.8502 121.819 35.8502 121.819 35.9096C121.819 35.9096 121.819 35.9691 121.819 36.0285C121.938 38.1688 123.246 39.893 125.03 40.0713C125.089 40.0713 125.208 40.0713 125.268 40.0713C126.754 40.0713 128.062 38.9417 128.537 37.3365H129.489C128.954 39.5957 127.051 41.2604 124.732 41.2604C122.414 41.2604 119.501 38.8823 119.501 35.9691C119.501 33.0559 119.501 35.6124 119.501 35.3746C119.501 35.0178 119.619 34.7206 119.679 34.4233C120.273 32.283 122.414 30.6778 124.614 30.6778C126.813 30.6778 128.775 32.2235 129.37 34.4233C129.429 34.7206 129.548 35.0773 129.548 35.3746H121.76C121.76 35.434 121.76 35.4935 121.76 35.5529C121.76 35.5529 121.76 35.6124 121.76 35.6718H121.819ZM121.998 34.4233H127.348C126.932 32.8181 126.159 31.6885 124.911 31.5696C124.851 31.5696 124.792 31.5696 124.673 31.5696C123.306 31.5696 122.414 32.7586 121.998 34.4233ZM143.936 13.6742C144.59 14.2687 144.768 15.1605 144.53 15.9929C143.995 17.5981 142.568 21.6409 142.449 22.1165C142.331 21.6409 140.309 16.1118 140.309 16.1118C140.012 15.2794 140.309 14.2687 140.963 13.7336H137.158H134.126V10.1665L132.402 11.7122V13.7336H130.737V14.8038H132.402V21.7004C132.402 22.7705 132.937 23.9001 134.78 23.9001C136.623 23.9001 136.564 23.6029 137.336 23.0083L137.158 22.5327C134.958 23.0083 134.126 22.6516 134.126 21.2247V14.8633H137.872L141.26 23.7812H141.914C141.914 23.7812 140.606 26.7539 138.407 26.7539L139.239 28.2402C141.201 27.6457 142.509 24.7325 143.638 21.7004L145.957 15.5767C146.136 15.1011 146.433 14.6254 146.789 14.2687L147.265 13.8526H143.995L143.936 13.6742ZM116.468 38.4067V32.0452H119.025V30.975H116.468V27.4078L114.744 28.9536V30.975H113.08V32.0452H114.744V38.9417C114.744 40.0119 115.279 41.1415 117.122 41.1415C118.965 41.1415 118.906 40.8442 119.679 40.2497L119.501 39.7741C117.301 40.2497 116.468 39.893 116.468 38.4661V38.4067ZM69.5006 34.4828C69.5006 37.931 66.7063 41.082 63.1985 41.082C59.6908 41.082 59.5125 39.8335 59.5125 37.2176C59.5125 34.6017 62.3067 30.6183 65.8145 30.6183C69.3222 30.6183 69.5006 31.8668 69.5006 34.4828ZM67.4792 33.4721C67.4792 32.1641 67.063 31.3912 65.755 31.3912C63.258 31.3912 61.4744 35.0178 61.4744 38.1688C61.4744 41.3199 61.8906 40.2497 63.1985 40.2497C65.6956 40.2497 67.4792 36.6231 67.4792 33.4721ZM133.115 32.8181L132.937 30.5589L130.499 31.6885L130.975 32.2235C131.332 32.6397 131.57 33.1748 131.57 33.7099V38.8823C131.57 39.5363 131.272 40.1308 130.797 40.6064L130.44 40.9037H134.661L134.245 40.6064C133.65 40.1902 133.294 39.4768 133.294 38.7634V33.9477C135.077 32.2235 137.277 32.8775 137.277 32.8775V30.5589C134.304 30.5589 133.175 32.937 133.175 32.937L133.115 32.8181ZM72.1759 29.6671C72.1165 30.0832 71.9976 30.44 71.9381 30.8561H70.0356V31.8074H71.7598L70.1545 40.3092C69.8573 41.8549 69.5006 43.2224 67.7764 45.1843L68.1331 45.4816C70.2734 44.2331 71.4031 42.8656 71.7598 40.8442L73.4839 31.8074H76.4566V30.7967H73.6623C74.1974 27.9429 74.3757 25.6243 75.862 25.6243C77.3484 25.6243 77.2889 25.9215 78.0023 26.4566L78.7158 25.2081C78.4185 24.9108 77.4673 24.6136 76.8727 24.6136C74.4946 24.6136 72.6516 26.635 72.1165 29.6076L72.1759 29.6671ZM80.3805 23.3056L80.0238 23.6029H84.0665L83.7098 23.3056C83.1748 22.8894 82.8775 22.2354 82.8775 21.5814V16.7063C82.8775 14.7443 82.1641 13.3769 79.9048 13.3769C77.6456 13.3769 77.5267 13.912 76.6944 14.9227C76.6349 14.3876 76.516 13.3769 76.516 13.3769L73.9001 14.5065L74.3757 14.9822C74.7919 15.3983 75.0297 15.9929 75.0297 16.5279V21.6409C75.0297 22.2949 74.7324 22.8894 74.2568 23.365L73.9001 23.6623H78.0023L77.6456 23.365C77.1106 22.9489 76.7538 22.2949 76.7538 21.5814V16.2307C77.0511 15.6956 78.0023 14.7443 79.132 14.7443C80.7372 14.7443 81.2128 15.5767 81.2128 17.0036V21.5814C81.2128 22.2354 80.9155 22.8894 80.3805 23.3056ZM104.994 35.6124C104.994 35.6124 104.994 35.6718 104.994 35.7313C104.994 35.7907 104.994 35.7907 104.994 35.8502C104.994 35.8502 104.994 35.9096 104.994 35.9691C105.113 38.1094 106.421 39.8335 108.204 40.0119C108.264 40.0119 108.383 40.0119 108.442 40.0119C109.929 40.0119 111.237 38.8823 111.712 37.277H112.663C112.128 39.5363 110.226 41.201 107.907 41.201C105.589 41.201 102.675 38.8228 102.675 35.9096C102.675 32.9964 102.675 35.5529 102.675 35.3151C102.675 34.9584 102.794 34.6611 102.854 34.3638C103.448 32.2235 105.589 30.6183 107.788 30.6183C109.988 30.6183 111.95 32.1641 112.545 34.3638C112.604 34.6611 112.723 35.0178 112.723 35.3151H104.935C104.935 35.3746 104.935 35.434 104.935 35.4935C104.935 35.4935 104.935 35.5529 104.935 35.6124H104.994ZM105.172 34.3638H110.523C110.107 32.7586 109.334 31.629 108.086 31.5101C108.026 31.5101 107.967 31.5101 107.848 31.5101C106.48 31.5101 105.589 32.6992 105.172 34.3638ZM86.9798 39.9524C86.4447 39.9524 85.6718 39.9524 84.78 39.9524V33.5315H86.623C87.277 33.5315 87.9905 33.591 88.6444 33.7693L90.5469 34.1855V32.1641L88.585 32.5803C87.9905 32.6992 87.3365 32.7586 86.7419 32.7586H84.8394V27.2889C85.9096 27.2889 86.6825 27.2889 87.277 27.2889C88.1094 27.2889 88.8822 27.4673 89.5957 27.824L91.7954 28.8942L91.5576 26.3971H81.3317L81.8668 26.7539C82.4613 27.17 82.818 27.8835 82.818 28.5969V38.7039C82.818 39.4174 82.4613 40.1308 81.8668 40.547L81.3912 40.9037H91.9144L92.0927 38.2878L89.8335 39.3579C88.9417 39.7741 87.9904 39.9524 87.0392 39.9524H86.9798Z" fill="white"/>
<mask id="mask0_9_311" style="mask-type:luminance" maskUnits="userSpaceOnUse" x="0" y="0" width="50" height="50">
<path d="M50 0H0V50H50V0Z" fill="white"/>
</mask>
<g mask="url(#mask0_9_311)">
<path d="M50 24.9703C50 38.7634 38.8228 49.9405 25.0297 49.9405C11.2366 49.9405 0 38.8228 0 24.9703C0 11.1177 11.1772 0 24.9703 0C38.7634 0 49.9405 11.1772 49.9405 24.9703" fill="#00C896"/>
<path d="M38.7039 14.4471V11.0583H35.1367C32.283 9.03687 28.7753 7.84781 24.9703 7.84781C21.1653 7.84781 17.6576 9.03687 14.8038 11.0583H11.2366V14.4471C8.85851 17.4197 7.49109 21.1058 7.49109 25.1486C7.49109 31.0345 10.4637 36.2664 15.0416 39.3579C15.3389 39.5363 15.6362 39.7146 15.9334 39.893L24.9703 44.6492L34.0071 39.893C34.3639 39.7146 34.6611 39.5363 34.9584 39.2985C39.4768 36.1474 42.4495 30.975 42.4495 25.0892C42.4495 19.2033 41.0226 17.3008 38.7039 14.3876" fill="white"/>
<path d="M31.2723 23.1272C31.0939 23.1272 30.9156 23.1272 30.7372 23.1272V21.8193C30.7372 21.6409 30.7372 21.4031 30.9156 21.2842C30.9156 21.2842 30.9156 21.2247 31.0345 21.1653C31.0345 21.1653 31.0345 21.2247 31.1534 21.2842C31.2723 21.4625 31.3318 21.6409 31.3318 21.8193V23.1272H31.2723ZM32.2235 20.0951C32.3425 19.9168 32.4614 19.7384 32.5803 19.6195V18.4899C32.4019 18.4304 32.2235 18.371 32.0452 18.3115C31.9857 18.4304 31.9263 18.5494 31.8668 18.6683C31.7479 18.6683 31.629 18.6683 31.5101 18.6683C31.4507 18.5494 31.3912 18.371 31.3318 18.2521C31.1534 18.2521 30.975 18.2521 30.7372 18.2521C30.6778 18.371 30.6183 18.5494 30.5589 18.6683C30.44 18.6683 30.321 18.6683 30.2021 18.6683C30.1427 18.5494 30.0832 18.4304 30.0238 18.3115C29.8454 18.3115 29.6671 18.4304 29.4887 18.4899V19.6195L29.8454 20.0951C29.8454 20.0951 29.3698 24.3757 29.132 26.0999C30.3805 26.6944 31.7479 26.6944 32.9964 26.0999C32.7586 24.1379 32.283 20.0951 32.283 20.0951" fill="#003C3C"/>
<path d="M27.943 29.9643L28.3591 29.7265V26.5161L28.0024 26.2782V29.4887L27.4079 29.1914C27.0512 29.0131 26.6944 28.8942 26.3972 28.8942C26.0999 28.8942 25.7432 28.9536 25.327 29.1914L25.0298 29.3698L24.7325 29.1914C24.3758 29.0131 24.0191 28.8942 23.6623 28.8942C23.3056 28.8942 23.0083 28.9536 22.5922 29.1914L21.9976 29.4887V26.2188L21.6409 26.5161V29.7265L22.0571 29.9643" fill="#003C3C"/>
<path d="M27.6457 25.8026V28.9536L27.3484 28.8347C26.9917 28.6564 26.635 28.5375 26.2782 28.5375C25.9215 28.5375 25.6243 28.5969 25.2675 28.7753V25.6243C25.6243 25.4459 25.9215 25.3864 26.2782 25.3864C26.635 25.3864 27.0511 25.5053 27.5268 25.7432H27.6457V25.8026Z" fill="#003C3C"/>
<path d="M24.7919 25.6243V28.7753C24.4352 28.5969 24.0785 28.5375 23.7812 28.5375C23.484 28.5375 23.1273 28.5969 22.7111 28.8347L22.4138 28.9536V25.8026H22.5327C23.0083 25.5054 23.3651 25.3864 23.7812 25.3864C24.1974 25.3864 24.4352 25.4459 24.7919 25.6243Z" fill="#003C3C"/>
<path d="M19.3223 23.1272C19.1439 23.1272 18.9655 23.1272 18.7872 23.1272V21.8193C18.7872 21.6409 18.7872 21.4031 18.9655 21.2842C18.9655 21.2842 18.9655 21.2247 19.0844 21.1653C19.0844 21.1653 19.0844 21.2247 19.2033 21.2842C19.3223 21.4625 19.3817 21.6409 19.3817 21.8193V23.1272H19.3223ZM20.2735 20.0951C20.3924 19.9168 20.5113 19.7384 20.6302 19.6195V18.4899C20.4519 18.4304 20.2735 18.371 20.0951 18.3115C20.0357 18.4304 19.9762 18.5494 19.9168 18.6683C19.7979 18.6683 19.679 18.6683 19.5601 18.6683C19.5006 18.5494 19.4412 18.371 19.3817 18.2521C19.2033 18.2521 19.025 18.2521 18.7872 18.2521C18.7277 18.371 18.6683 18.5494 18.6088 18.6683C18.4899 18.6683 18.371 18.6683 18.2521 18.6683C18.1926 18.5494 18.1332 18.4304 18.0737 18.3115C17.8954 18.3115 17.717 18.4304 17.5387 18.4899V19.6195C17.5387 19.6195 17.7765 19.9762 17.8954 20.0951C17.8954 20.0951 17.4198 24.3757 17.1819 26.0999C18.4305 26.6944 19.7979 26.6944 21.0464 26.0999C20.8086 24.1379 20.333 20.0951 20.333 20.0951" fill="#003C3C"/>
<path d="M25.2675 20.7491C25.0892 20.7491 24.9108 20.7491 24.7325 20.7491V19.4411C24.7325 19.2628 24.7325 19.025 24.9108 18.9061C24.9108 18.9061 24.9108 18.8466 25.0297 18.7872C25.0297 18.7872 25.0297 18.8466 25.1486 18.9061C25.2675 19.0844 25.327 19.2628 25.327 19.4411V20.7491H25.2675ZM23.7812 18.0737C23.5434 19.9762 23.3056 21.8787 23.0678 23.7812C23.3056 23.9001 23.8407 24.1974 23.8407 24.1974L24.0785 23.8407V23.5434C24.0785 22.8894 24.4352 22.2949 24.9703 21.9382C25.2675 22.1165 25.5054 22.3543 25.6243 22.6516C25.8026 22.9489 25.8621 23.2461 25.8621 23.6029V23.9001L26.0999 24.2568C26.0999 24.2568 26.635 23.9596 26.8728 23.8407C26.635 21.9382 26.3972 19.9762 26.1593 18.0737V17.8359L26.5161 17.3603V17.1819V16.2307C26.3377 16.1712 26.1593 16.1118 25.981 16.0523C25.9215 16.1712 25.8621 16.2901 25.8026 16.409C25.6837 16.409 25.5648 16.409 25.4459 16.409C25.3864 16.2901 25.327 16.1118 25.2675 15.9929C25.0892 15.9929 24.9108 15.9929 24.673 15.9929C24.6136 16.1118 24.5541 16.2901 24.4947 16.409C24.3757 16.409 24.2568 16.409 24.1379 16.409C24.0785 16.2901 24.019 16.1712 23.9596 16.0523C23.7812 16.0523 23.6029 16.1712 23.4245 16.2307V17.3603L23.7812 17.8359V18.1926V18.0737Z" fill="#003C3C"/>
<path d="M29.132 21.0464L28.9537 21.2247L28.7158 21.0464L28.5969 20.5113L28.2997 20.2735L28.1808 20.6302L27.8835 20.3924L27.7646 19.8573L27.4673 19.6195L27.3484 19.9168L26.8728 19.56L27.4079 23.7218L28.7753 24.9703C28.9537 23.6623 29.0726 22.4138 29.2509 21.1058H29.132V21.0464Z" fill="#003C3C"/>
<path d="M22.6516 23.7218L23.1867 19.56L22.7111 19.9168L22.5922 19.6195L22.2949 19.8573L22.176 20.3924L21.8787 20.6302L21.7598 20.2735L21.4625 20.5113L21.3436 21.0464L21.1058 21.2247L20.9275 21.0464H20.868C21.0464 22.4138 21.1653 23.6623 21.3436 24.9703L22.7111 23.7218H22.6516Z" fill="#003C3C"/>
<path d="M39.3579 32.7586V9.98811H10.7015V32.7586C10.7015 36.088 12.5446 39.1201 15.4578 40.6659L25.0297 45.7194L34.6017 40.6659C37.5149 39.1201 39.3579 36.088 39.3579 32.7586ZM30.2021 40.1308C30.2021 39.6552 30.6183 39.239 31.0939 39.239C31.5696 39.239 31.9857 39.6552 31.9857 40.1308C31.9857 40.6064 31.5696 41.0226 31.0939 41.0226C30.6183 41.0226 30.2021 40.6064 30.2021 40.1308ZM24.0785 43.1035C24.0785 42.5684 24.4946 42.2117 24.9703 42.2117C25.4459 42.2117 25.8621 42.6278 25.8621 43.1035C25.8621 43.5791 25.4459 43.9953 24.9703 43.9953C24.4946 43.9953 24.0785 43.5791 24.0785 43.1035ZM21.2247 38.9417L25.0892 36.8609L28.9536 38.9417L25.0892 40.9631L21.2247 38.9417ZM18.0143 40.0714C18.0143 39.5363 18.4304 39.1796 18.9061 39.1796C19.3817 39.1796 19.7979 39.5957 19.7979 40.0714C19.7979 40.547 19.3817 40.9631 18.9061 40.9631C18.4304 40.9631 18.0143 40.547 18.0143 40.0714ZM14.8633 31.3318L21.4625 34.8989L17.5981 36.9798L17.4197 36.8609C16.6468 36.4447 15.9929 35.8502 15.5767 35.0773C15.1011 34.3044 14.8633 33.4721 14.8633 32.5803V31.2128V31.3318ZM11.8906 30.6778C11.8906 30.1427 12.3068 29.786 12.7824 29.786C13.258 29.786 13.6742 30.2021 13.6742 30.6778C13.6742 31.1534 13.258 31.5696 12.7824 31.5696C12.3068 31.5696 11.8906 31.1534 11.8906 30.6778ZM11.8906 24.4947C11.8906 23.9596 12.3068 23.6029 12.7824 23.6029C13.258 23.6029 13.6742 24.019 13.6742 24.4947C13.6742 24.9703 13.258 25.3864 12.7824 25.3864C12.3068 25.3864 11.8906 24.9703 11.8906 24.4947ZM11.8906 18.3115C11.8906 17.7765 12.3068 17.4197 12.7824 17.4197C13.258 17.4197 13.6742 17.8359 13.6742 18.3115C13.6742 18.7872 13.258 19.2033 12.7824 19.2033C12.3068 19.2033 11.8906 18.7872 11.8906 18.3115ZM13.7336 12.0095C13.7336 12.4851 13.3175 12.9013 12.8418 12.9013C12.3662 12.9013 11.9501 12.4851 11.9501 12.0095C11.9501 11.5339 12.3662 11.1177 12.8418 11.1177C13.3175 11.1177 13.7336 11.5339 13.7336 12.0095ZM14.7443 36.2069C14.7443 36.6825 14.3282 37.0987 13.8525 37.0987C13.3769 37.0987 12.9608 36.6825 12.9608 36.2069C12.9608 35.7313 13.3769 35.3151 13.8525 35.3151C14.3282 35.3151 14.7443 35.7313 14.7443 36.2069ZM21.8787 12.0095C21.8787 12.4851 21.4625 12.9013 20.9869 12.9013C20.5113 12.9013 20.0951 12.4851 20.0951 12.0095C20.0951 11.5339 20.5113 11.1177 20.9869 11.1177C21.4625 11.1177 21.8787 11.5339 21.8787 12.0095ZM30.0238 12.0095C30.0238 12.4851 29.6076 12.9013 29.132 12.9013C28.6564 12.9013 28.2402 12.4851 28.2402 12.0095C28.2402 11.5339 28.6564 11.1177 29.132 11.1177C29.6076 11.1177 30.0238 11.5339 30.0238 12.0095ZM35.2556 27.4673L25.0892 32.937L14.9227 27.4079V13.9715H35.3151V27.4079L35.2556 27.4673ZM35.2556 32.6397C35.2556 33.5315 35.0178 34.3639 34.5422 35.1367C34.0666 35.9096 33.472 36.5042 32.6992 36.9203L32.5208 37.0392L28.6564 34.9584L35.2556 31.3912V32.6992V32.6397ZM36.3258 35.2557C36.8014 35.2557 37.2176 35.6718 37.2176 36.1474C37.2176 36.6231 36.8014 37.0392 36.3258 37.0392C35.8502 37.0392 35.434 36.6231 35.434 36.1474C35.434 35.6718 35.8502 35.2557 36.3258 35.2557ZM38.1688 12.0095C38.1688 12.4851 37.7527 12.9013 37.277 12.9013C36.8014 12.9013 36.3852 12.4851 36.3852 12.0095C36.3852 11.5339 36.8014 11.1177 37.277 11.1177C37.7527 11.1177 38.1688 11.5339 38.1688 12.0095ZM38.1688 18.371C38.1688 18.8466 37.7527 19.2628 37.277 19.2628C36.8014 19.2628 36.3852 18.8466 36.3852 18.371C36.3852 17.8954 36.8014 17.4792 37.277 17.4792C37.7527 17.4792 38.1688 17.8954 38.1688 18.371ZM38.1688 24.5541C38.1688 25.0892 37.7527 25.4459 37.277 25.4459C36.8014 25.4459 36.3852 25.0297 36.3852 24.5541C36.3852 24.0785 36.8014 23.6623 37.277 23.6623C37.7527 23.6623 38.1688 24.0785 38.1688 24.5541ZM38.1688 30.7372C38.1688 31.2128 37.7527 31.629 37.277 31.629C36.8014 31.629 36.3852 31.2128 36.3852 30.7372C36.3852 30.2616 36.8014 29.8454 37.277 29.8454C37.7527 29.8454 38.1688 30.2616 38.1688 30.7372Z" fill="#003C3C"/>
</g>
</svg>
