<svg width="68" height="40" viewBox="0 0 68 40" fill="none" xmlns="http://www.w3.org/2000/svg">
<path d="M0 10.6413H0.712589C0.997625 10.6413 1.23514 10.3563 1.23514 10.1188V1.14014C1.23514 0.902613 0.950119 0.570071 0.712589 0.570071H0V0H8.21852V2.70784H7.55346L7.41092 0.617577H2.28028V5.36817H5.22565L5.36817 3.89549H6.03326V7.50594H5.36817L5.22565 5.98575H2.28028V10.5938H3.80048V11.1639H0V10.5938V10.6413Z" fill="white"/>
<path d="M8.45605 8.83613C8.45605 7.17342 9.83373 6.41333 11.7815 6.41333C13.7292 6.41333 13.3017 6.50834 13.9668 6.65086V5.13067C13.9668 3.8005 13.1592 3.37295 11.9715 3.37295C10.7839 3.37295 9.97626 3.75299 9.4537 4.18055H8.97864V3.42045C9.64372 3.0404 10.6413 2.70786 12.019 2.70786C13.3967 2.70786 14.8694 3.23043 14.8694 5.03565V9.88126C14.8694 10.3563 15.0594 10.5938 15.5345 10.5938C16.0095 10.5938 15.962 10.5463 15.962 10.5463V11.0689C15.867 11.1164 15.5819 11.2114 15.2494 11.2114C14.4418 11.2114 13.9668 10.8789 13.9668 10.0713V9.88126C13.3017 10.6889 12.4465 11.2114 11.2114 11.2114C9.97624 11.2114 8.45605 10.4513 8.45605 8.78862M13.9668 9.21618V7.22093C13.3492 7.07841 12.6841 6.9834 11.9715 6.9834C10.4038 6.9834 9.35868 7.50596 9.35868 8.78862C9.35868 10.0713 10.1188 10.5938 11.3539 10.5938C12.5891 10.5938 13.3017 10.0238 13.9668 9.21618Z" fill="white"/>
<path d="M16.7221 10.6413H17.5297C17.7672 10.6413 18.0048 10.4038 18.0048 10.1663V1.09264C18.0048 0.855107 17.7672 0.617577 17.5297 0.617577H16.6746V0H18.7173C18.8599 0 18.9073 0.0950119 18.9073 0.285036V10.1663C18.9073 10.4038 19.1449 10.6413 19.3824 10.6413H20.19V11.2114H16.7221V10.6413Z" fill="white"/>
<path d="M28.5035 10.6413H29.7862V11.2114H26.3182V10.6413H27.6009V5.13065C27.6009 3.80048 26.9833 3.51544 26.2232 3.51544C25.4631 3.51544 24.1805 4.08551 23.2304 4.89312V10.6413H24.6555V11.2114H21.1401V10.6413H21.8527C22.0902 10.6413 22.3277 10.4038 22.3277 10.1663V3.943C22.3277 3.70547 22.0902 3.46794 21.8527 3.46794H21.0926V2.85036H22.9928C23.1829 2.85036 23.2779 2.94537 23.2779 3.37293V4.32304C24.1805 3.46794 25.2256 2.75535 26.5083 2.75535C27.7909 2.75535 28.361 3.08789 28.551 4.32304C29.5486 3.42043 30.5463 2.75535 31.8289 2.75535C33.1116 2.75535 33.8717 3.1829 33.8717 4.84561V10.1663C33.8717 10.4038 34.1092 10.6413 34.3467 10.6413H34.9643V11.2114H31.4964V10.6413H32.9216V5.13065C32.9216 3.80048 32.304 3.51544 31.4964 3.51544C30.6888 3.51544 29.4536 4.13302 28.5035 4.89312V10.6413Z" fill="white"/>
<path d="M35.2969 7.03088C35.2969 4.37055 37.0546 2.75535 39.3824 2.75535C41.7102 2.75535 43.4679 4.37055 43.4679 7.03088C43.4679 9.69122 41.7577 11.2589 39.3824 11.2589C37.0071 11.2589 35.2969 9.64371 35.2969 7.03088ZM42.5178 7.03088C42.5178 4.7506 41.2351 3.42043 39.3824 3.42043C37.5297 3.42043 36.247 4.7506 36.247 7.03088C36.247 9.31117 37.5297 10.6413 39.3824 10.6413C41.2351 10.6413 42.5178 9.31117 42.5178 7.03088Z" fill="white"/>
<path d="M45.0356 9.21614V3.94298C45.0356 3.70545 44.7981 3.46792 44.5606 3.46792H43.8005V2.85034H45.9382V8.97861C45.9382 10.2613 46.6508 10.5938 47.5059 10.5938C48.361 10.5938 49.8337 9.92873 50.7363 9.21614V3.46792H49.4062V2.85034H51.639V10.1663C51.639 10.4038 51.8765 10.6413 52.114 10.6413H52.8741V11.2114H50.9739C50.7838 11.2114 50.7363 11.1164 50.6888 10.6888V9.83371C49.6912 10.6413 48.5986 11.3539 47.1734 11.3539C45.7482 11.3539 44.9881 10.8788 44.9881 9.31115" fill="white"/>
<path d="M54.0617 9.40619V3.46795H52.8741V2.85037H54.0617V0.522583H55.0119V2.80287H57.1971V3.42045H55.0119V9.26368C55.0119 10.2613 55.2969 10.5938 56.152 10.5938C57.0071 10.5938 56.8171 10.4988 56.9121 10.4513H57.3397V11.0689C57.0546 11.1639 56.5795 11.2589 56.1045 11.2589C54.7743 11.2589 54.0617 10.7364 54.0617 9.35869" fill="white"/>
<path d="M60.38 10.6413H61.8052V11.2114H58.2898V10.6413H59.0024C59.2399 10.6413 59.4774 10.4038 59.4774 10.1663V1.09264C59.4774 0.855107 59.2399 0.617577 59.0024 0.617577H58.2422V0H60.19C60.3325 0 60.4275 0.0950119 60.4275 0.285036V4.32304C61.3302 3.51544 62.6128 2.75534 63.9905 2.75534C65.3682 2.75534 66.2233 3.1829 66.2233 4.84561V10.1663C66.2233 10.4038 66.4608 10.6413 66.6983 10.6413H67.3159V11.2114H63.848V10.6413H65.2732V5.13064C65.2732 3.80048 64.6081 3.51544 63.6579 3.51544C62.7078 3.51544 61.3777 4.13302 60.4275 4.89311V10.6413H60.38Z" fill="white"/>
<path d="M0 24.9406H0.712589C0.997625 24.9406 1.23514 24.6556 1.23514 24.4181V15.4869C1.23514 15.2494 0.950119 14.9169 0.712589 14.9169H0V14.3468H8.26605V17.0546H7.60095L7.45844 15.0119H2.28028V19.4774H5.27315L5.41569 18.0523H6.08075V21.5202H5.41569L5.27315 20.095H2.28028V24.9406H7.64845L7.79099 22.7078H8.50358V25.6057H0.0474943V25.0356L0 24.9406Z" fill="white"/>
<path d="M9.59624 24.9406H10.0713C10.3088 24.9406 10.6414 24.7506 10.7839 24.5606L13.0642 21.2827L10.8789 18.3373C10.6414 18.0523 10.3088 17.7672 10.0713 17.7672H9.50122V17.1497H12.6841V17.7672H11.5915L13.7768 20.8076L15.4395 18.2898C15.6295 18.0523 15.5345 17.7672 15.2019 17.7672H14.6794V17.1497H17.4822V17.7672H17.0072C16.8171 17.7672 16.4846 17.9573 16.3421 18.1948L14.2518 21.2352L16.5796 24.3706C16.8171 24.6556 17.1972 24.9406 17.4347 24.9406H17.7197V25.5107H14.6794V24.9406H15.962L13.5867 21.7102L11.7815 24.3706C11.5915 24.6556 11.6865 24.9406 11.9715 24.9406H12.4466V25.5107H9.64373V24.9406H9.59624Z" fill="white"/>
<path d="M17.9573 21.3777C17.9573 18.7649 19.5725 17.1021 21.8528 17.1021C24.1331 17.1021 25.4157 18.2898 25.4157 20.9976C25.4157 23.7055 25.4157 21.3302 25.4157 21.3777H18.9074C18.9074 23.7055 20 24.9881 22.1378 24.9881C24.2756 24.9881 24.2756 24.5131 24.7031 23.9905H25.2257V24.6556C24.6556 25.1306 23.658 25.6057 22.0428 25.6057C19.3825 25.6057 17.9573 23.9905 17.9573 21.3777ZM24.5131 20.7601C24.4656 18.5273 23.4205 17.7197 21.8528 17.7197C20.2851 17.7197 19.0974 18.8124 18.9549 20.7601H24.5131Z" fill="white"/>
<path d="M27.2209 23.7055V17.7672H26.0333V17.1496H27.2209V14.8694H28.171V17.1496H30.3563V17.7672H28.171V23.6104C28.171 24.6081 28.4561 24.9406 29.3112 24.9406C30.1663 24.9406 29.9763 24.8456 30.0713 24.7981H30.4988V25.4157C30.2138 25.5107 29.7387 25.6057 29.2637 25.6057C27.9335 25.6057 27.2209 25.0831 27.2209 23.7055Z" fill="white"/>
<path d="M30.9263 21.3777C30.9263 18.7649 32.5415 17.1021 34.8218 17.1021C37.1021 17.1021 38.3848 18.2898 38.3848 20.9976C38.3848 23.7055 38.3848 21.3302 38.3848 21.3777H31.8764C31.8764 23.7055 32.9691 24.9881 35.1069 24.9881C37.2446 24.9881 37.2446 24.5131 37.6722 23.9905H38.1948V24.6556C37.6247 25.1306 36.6271 25.6057 35.0119 25.6057C32.3515 25.6057 30.9263 23.9905 30.9263 21.3777ZM37.4822 20.7601C37.4347 18.5273 36.3895 17.7197 34.8218 17.7197C33.2541 17.7197 32.0665 18.8124 31.924 20.7601H37.4822Z" fill="white"/>
<path d="M39.1925 24.9406H39.905C40.1426 24.9406 40.3801 24.7031 40.3801 24.4656V18.2423C40.3801 18.0048 40.1426 17.7672 39.905 17.7672H39.145V17.1496H41.0452C41.2352 17.1496 41.3302 17.2447 41.3302 17.7197V18.7649C41.9478 17.9572 42.8504 17.1021 44.0856 17.1021C45.3207 17.1021 44.4181 17.1021 44.4656 17.1496V17.9097C44.4656 17.9097 44.2281 17.9097 44.0856 17.9097C42.8504 17.9097 42.1378 18.4798 41.2827 19.3824V24.9406H42.8029V25.5107H39.1925V24.9406Z" fill="white"/>
<path d="M0 39.2874H0.712589C0.997625 39.2874 1.23514 39.0024 1.23514 38.7649V29.8337C1.23514 29.5962 0.950119 29.2637 0.712589 29.2637H0V28.6936H4.32303C6.74583 28.6936 8.31354 29.5487 8.31354 31.924C8.31354 34.2993 6.79335 35.2019 4.27553 35.2019H2.28028V39.2874H3.75298V39.8575H0V39.2874ZM4.27553 34.5843C6.27078 34.5843 7.31593 33.9193 7.31593 31.924C7.31593 29.9288 6.17577 29.3112 4.27553 29.3112H2.28028V34.5368H4.27553V34.5843Z" fill="white"/>
<path d="M8.93114 39.2874H9.69125C9.92878 39.2874 10.1663 39.0499 10.1663 38.8124V29.7387C10.1663 29.5012 9.92878 29.2637 9.69125 29.2637H8.83612V28.6936H10.8789C11.0214 28.6936 11.0689 28.7886 11.0689 28.9786V38.8599C11.0689 39.0974 11.3064 39.3349 11.544 39.3349H12.3516V39.905H8.88364V39.3349L8.93114 39.2874Z" fill="white"/>
<path d="M14.0143 37.8622V32.5891C14.0143 32.3515 13.7767 32.114 13.5392 32.114H12.7791V31.4964H14.9169V37.6247C14.9169 38.9074 15.582 39.2399 16.4846 39.2399C17.3872 39.2399 18.8124 38.5748 19.715 37.8622V32.114H18.3848V31.4964H20.6176V38.8123C20.6176 39.0499 20.8551 39.2874 21.0927 39.2874H21.8527V39.8575H19.9525C19.7625 39.8575 19.715 39.7625 19.6675 39.3349V38.4798C18.6699 39.2874 17.5772 40 16.152 40C14.7268 40 13.9668 39.5249 13.9668 37.9572" fill="white"/>
<path d="M22.7554 39.4299V37.8622H23.3729C23.4204 38.6223 23.563 38.9074 23.848 39.0499C24.228 39.1924 24.6556 39.2874 25.4632 39.2874C26.9359 39.2874 27.791 38.6698 27.791 37.4822C27.791 36.2945 27.0309 36.152 25.5107 35.867C23.8955 35.5819 22.8979 35.2019 22.8979 33.6342C22.8979 32.0665 23.943 31.3539 25.7957 31.3539C27.6485 31.3539 27.8385 31.5439 28.3611 31.734V33.2066H27.7435C27.6485 32.5416 27.601 32.304 27.2684 32.1615C26.9359 32.019 26.5558 31.9715 25.7957 31.9715C24.4181 31.9715 23.753 32.5416 23.753 33.4917C23.753 34.4418 24.4181 34.8218 25.8908 35.0594C27.6485 35.3444 28.6461 35.8195 28.6461 37.2922C28.6461 38.7648 27.6485 39.81 25.5107 39.81C23.3729 39.81 23.2779 39.5724 22.7554 39.3349" fill="white"/>
</svg>
