<svg width="102" height="25" viewBox="0 0 102 25" fill="none" xmlns="http://www.w3.org/2000/svg">
<path d="M5.36045 18.1146H4.52865V22.0425C4.52865 24.0758 3.14232 24.2144 2.68022 24.2144C2.21811 24.2144 0.831787 24.0758 0.831787 22.0425V18.1146H0V21.9963C0 24.2144 1.38632 25 2.68022 25C3.97412 25 5.36045 24.2144 5.36045 21.9963V18.1146Z" fill="white"/>
<path d="M13.9556 18.1146H13.1238V23.475L9.33456 18.1146H7.94824L8.45655 18.7615V24.8614H9.28835V19.5471L13.0776 24.8614H13.9556V18.1146Z" fill="white"/>
<path d="M18.3919 18.1146H17.5601V24.8614H18.3919V18.1146Z" fill="white"/>
<path d="M22.1811 21.8115C22.6432 23.1054 23.1977 24.9076 23.1977 24.9076H24.2606C24.2606 24.9076 25.0462 22.4122 25.2772 21.8577C25.5083 21.2569 26.6635 18.0684 26.6635 18.0684H25.6931L23.7522 23.8909L21.8114 18.0684H20.841L22.1811 21.8115Z" fill="white"/>
<path d="M31.7006 21.6266L31.9778 20.8872H29.8059V18.854H32.5786L32.8096 18.1146H28.9741V24.8614H32.671L32.9482 24.122H29.8059V21.6266H31.7006Z" fill="white"/>
<path d="M37.1535 18.1146H35.2589V24.8614H36.0907V21.8577H37.1073L39.233 24.8614H40.2496L37.9853 21.6266H38.0777C38.8171 21.3031 39.2792 20.7024 39.2792 19.9168C39.2792 19.2699 38.8171 18.0684 37.1535 18.0684M36.0907 18.8078H37.0149C37.8467 18.8078 38.355 19.2237 38.355 19.8706C38.355 20.5176 37.8467 20.9797 37.0149 20.9797H36.0907V18.8078Z" fill="white"/>
<path d="M43.9001 17.976C42.7449 17.976 41.9131 18.7616 41.9131 19.8244C41.9131 20.8872 42.8373 21.3031 43.7153 21.719C44.5009 22.0425 45.194 22.366 45.194 23.1054C45.194 23.8447 44.6395 24.2606 43.9463 24.2606C43.2532 24.2606 42.56 23.8447 42.2365 22.9667C42.2365 22.9205 41.451 23.3826 41.451 23.3826C42.0055 24.5379 42.7449 25 43.9463 25C45.1478 25 46.072 24.2144 46.072 22.9667C46.072 21.719 45.0092 21.3031 44.085 20.8872C43.3918 20.61 42.7449 20.2865 42.7449 19.732C42.7449 19.1774 42.9759 18.8078 43.8077 18.8078C44.6395 18.8078 44.8705 19.085 45.194 19.5933L45.841 19.085C45.3327 18.3457 44.6395 17.976 43.8077 17.976" fill="white"/>
<path d="M49.8151 18.1146H48.9833V24.8614H49.8151V18.1146Z" fill="white"/>
<path d="M57.1626 18.1146H52.0794V18.854H54.2513V24.8614H55.1293V18.854H56.9316L57.1626 18.1146Z" fill="white"/>
<path d="M63.3549 18.0684H62.3383L60.6285 21.1645L58.8263 18.0684H57.8096L60.2126 21.9963V24.8152H61.0444V21.9963L63.3549 18.0684Z" fill="white"/>
<path d="M2.86507 3.0037V5.82255H7.7172L6.74677 8.50277H2.86507V13.7708H0V0.323474H9.70425L8.73382 3.0037H2.86507Z" fill="white"/>
<path d="M15.2496 11.0906H12.3845L11.4141 13.7708H8.27173L12.8928 2.03327L12.4307 0.323474H16.3124L21.5342 13.7708H18.4381L14.8799 4.15896L13.2625 8.59519H16.1738L15.2496 11.0906Z" fill="white"/>
<path d="M23.4288 13.7708V0.323474H26.2938V11.0906H31.4694L30.499 13.7708H23.4288Z" fill="white"/>
<path d="M43.6229 13.7708V5.36044L39.695 10.4436L35.7209 5.36044V13.7708H32.8558V1.98706L31.5619 0.323474H35.5822L39.695 5.63771L43.7615 0.323474H46.488V13.7708H43.6229Z" fill="white"/>
<path d="M56.0073 14.0481C51.7097 14.0481 48.7523 10.4898 48.7523 7.02403C48.7523 3.55823 51.7097 0 56.0073 0C60.3049 0 63.2624 3.55823 63.2624 7.02403C63.2624 10.4898 60.3049 14.0481 56.0073 14.0481ZM56.0073 2.72643C53.6044 2.72643 51.8022 4.57486 51.8022 7.02403C51.8022 9.4732 53.6044 11.3216 56.0073 11.3216C58.4103 11.3216 60.2125 9.4732 60.2125 7.02403C60.2125 4.57486 58.4103 2.72643 56.0073 2.72643Z" fill="white"/>
<path d="M74.0296 0.323474V7.57856C74.0296 10.9057 72.0425 11.2292 71.1183 11.2292C70.1941 11.2292 68.2071 10.8595 68.2071 7.57856V0.323474H65.2958V7.53235C65.2958 12.3383 68.2533 14.0481 71.0721 14.0481C73.891 14.0481 76.8485 12.3383 76.8485 7.53235V0.323474H73.9372H74.0296Z" fill="white"/>
<path d="M78.1423 0.323474V3.0037H81.8853V13.7708H84.7504V3.0037H87.9851L89.0018 0.323474H78.1423Z" fill="white"/>
<path d="M98.7061 0.323474H101.617V13.7708H98.7061V0.323474ZM97.2736 8.22551H92.9298V13.817H90.0185V0.323474H92.9298V5.54529H98.2903L97.2736 8.22551Z" fill="white"/>
</svg>
