<svg width="54" height="18" viewBox="0 0 54 18" fill="none" xmlns="http://www.w3.org/2000/svg">
<path d="M22.5776 14V2.896H24.0816V7.568H29.7456V2.896H31.2496V14H29.7456V8.944H24.0816V14H22.5776ZM37.1385 14.16C34.8505 14.16 33.1225 12.464 33.1225 10.192C33.1225 7.968 34.8345 6.24 37.0425 6.24C39.1225 6.24 40.6265 7.808 40.6265 9.968C40.6265 10.192 40.6105 10.432 40.5465 10.736H34.5945C34.8185 12 35.7785 12.8 37.1385 12.8C37.9865 12.8 38.7385 12.512 39.2345 11.904L40.1625 12.848C39.4265 13.696 38.3385 14.16 37.1385 14.16ZM37.0105 7.568C35.7305 7.568 34.8185 8.336 34.5945 9.536H39.2185C39.0585 8.304 38.2585 7.568 37.0105 7.568ZM42.1966 14V2.576H43.6366V14H42.1966ZM45.7435 17.184V6.4H47.1835V7.456C47.7435 6.704 48.6715 6.24 49.7435 6.24C51.8235 6.24 53.4235 7.968 53.4235 10.208C53.4235 12.432 51.8235 14.16 49.7435 14.16C48.6555 14.16 47.7435 13.712 47.1835 12.96V17.184H45.7435ZM49.5035 12.8C50.9435 12.8 51.9515 11.728 51.9515 10.192C51.9515 8.672 50.9435 7.6 49.5195 7.6C48.0795 7.6 47.1035 8.672 47.1035 10.208C47.1035 11.728 48.0795 12.8 49.5035 12.8Z" fill="white"/>
<path d="M8 16.5C10.1217 16.5 12.1566 15.6571 13.6569 14.1569C15.1571 12.6566 16 10.6217 16 8.5C16 6.37827 15.1571 4.34344 13.6569 2.84315C12.1566 1.34285 10.1217 0.5 8 0.5C5.87827 0.5 3.84344 1.34285 2.34315 2.84315C0.842855 4.34344 0 6.37827 0 8.5C0 10.6217 0.842855 12.6566 2.34315 14.1569C3.84344 15.6571 5.87827 16.5 8 16.5ZM6.75 11H7.5V9H6.75C6.33437 9 6 8.66562 6 8.25C6 7.83437 6.33437 7.5 6.75 7.5H8.25C8.66562 7.5 9 7.83437 9 8.25V11H9.25C9.66562 11 10 11.3344 10 11.75C10 12.1656 9.66562 12.5 9.25 12.5H6.75C6.33437 12.5 6 12.1656 6 11.75C6 11.3344 6.33437 11 6.75 11ZM8 4.5C8.26522 4.5 8.51957 4.60536 8.70711 4.79289C8.89464 4.98043 9 5.23478 9 5.5C9 5.76522 8.89464 6.01957 8.70711 6.20711C8.51957 6.39464 8.26522 6.5 8 6.5C7.73478 6.5 7.48043 6.39464 7.29289 6.20711C7.10536 6.01957 7 5.76522 7 5.5C7 5.23478 7.10536 4.98043 7.29289 4.79289C7.48043 4.60536 7.73478 4.5 8 4.5Z" fill="white"/>
</svg>
