<svg width="80" height="80" viewBox="0 0 80 80" fill="none" xmlns="http://www.w3.org/2000/svg">
<path d="M75 40C75 30.7174 71.3125 21.815 64.7487 15.2513C58.185 8.68749 49.2826 5 40 5C30.7174 5 21.815 8.68749 15.2513 15.2513C8.68749 21.815 5 30.7174 5 40C5 49.2826 8.68749 58.185 15.2513 64.7487C21.815 71.3125 30.7174 75 40 75C49.2826 75 58.185 71.3125 64.7487 64.7487C71.3125 58.185 75 49.2826 75 40ZM0 40C0 29.3913 4.21427 19.2172 11.7157 11.7157C19.2172 4.21427 29.3913 0 40 0C50.6087 0 60.7828 4.21427 68.2843 11.7157C75.7857 19.2172 80 29.3913 80 40C80 50.6087 75.7857 60.7828 68.2843 68.2843C60.7828 75.7857 50.6087 80 40 80C29.3913 80 19.2172 75.7857 11.7157 68.2843C4.21427 60.7828 0 50.6087 0 40ZM24.8906 60.7344C24.4844 62.0469 23.0781 62.7969 21.7656 62.375C20.4531 61.9531 19.7031 60.5625 20.125 59.25C22.6875 50.9531 30.6719 45 40 45C49.3281 45 57.3125 50.9531 59.8906 59.2656C60.2969 60.5781 59.5625 61.9844 58.25 62.3906C56.9375 62.7969 55.5312 62.0625 55.125 60.75C53.2031 54.5937 47.2031 50 40 50C32.7969 50 26.7969 54.5938 24.8906 60.7344ZM23.8125 32.5C23.8125 31.5054 24.2076 30.5516 24.9109 29.8483C25.6141 29.1451 26.5679 28.75 27.5625 28.75C28.5571 28.75 29.5109 29.1451 30.2141 29.8483C30.9174 30.5516 31.3125 31.5054 31.3125 32.5C31.3125 33.4946 30.9174 34.4484 30.2141 35.1516C29.5109 35.8549 28.5571 36.25 27.5625 36.25C26.5679 36.25 25.6141 35.8549 24.9109 35.1516C24.2076 34.4484 23.8125 33.4946 23.8125 32.5ZM52.5625 28.75C53.5571 28.75 54.5109 29.1451 55.2142 29.8483C55.9174 30.5516 56.3125 31.5054 56.3125 32.5C56.3125 33.4946 55.9174 34.4484 55.2142 35.1516C54.5109 35.8549 53.5571 36.25 52.5625 36.25C51.5679 36.25 50.6141 35.8549 49.9109 35.1516C49.2076 34.4484 48.8125 33.4946 48.8125 32.5C48.8125 31.5054 49.2076 30.5516 49.9109 29.8483C50.6141 29.1451 51.5679 28.75 52.5625 28.75Z" fill="#FF8F8A"/>
</svg>
