<svg width="80" height="80" viewBox="0 0 80 80" fill="none" xmlns="http://www.w3.org/2000/svg">
<path d="M75 40C75 30.7174 71.3125 21.815 64.7487 15.2513C58.185 8.68749 49.2826 5 40 5C30.7174 5 21.815 8.68749 15.2513 15.2513C8.68749 21.815 5 30.7174 5 40C5 49.2826 8.68749 58.185 15.2513 64.7487C21.815 71.3125 30.7174 75 40 75C49.2826 75 58.185 71.3125 64.7487 64.7487C71.3125 58.185 75 49.2826 75 40ZM0 40C0 29.3913 4.21427 19.2172 11.7157 11.7157C19.2172 4.21427 29.3913 0 40 0C50.6087 0 60.7828 4.21427 68.2843 11.7157C75.7857 19.2172 80 29.3913 80 40C80 50.6087 75.7857 60.7828 68.2843 68.2843C60.7828 75.7857 50.6087 80 40 80C29.3913 80 19.2172 75.7857 11.7157 68.2843C4.21427 60.7828 0 50.6087 0 40ZM25.6406 50.8594C28.4375 54.0938 33.2188 57.5 40 57.5C46.7812 57.5 51.5625 54.0938 54.3594 50.8594C55.2656 49.8125 56.8438 49.7031 57.8906 50.6094C58.9375 51.5156 59.0469 53.0938 58.1406 54.1406C54.6562 58.1406 48.6094 62.5 40 62.5C31.3906 62.5 25.3437 58.1406 21.8594 54.1406C20.9531 53.0938 21.0625 51.5156 22.1094 50.6094C23.1562 49.7031 24.7344 49.8125 25.6406 50.8594ZM23.8125 32.5C23.8125 31.5054 24.2076 30.5516 24.9109 29.8483C25.6141 29.1451 26.5679 28.75 27.5625 28.75C28.5571 28.75 29.5109 29.1451 30.2141 29.8483C30.9174 30.5516 31.3125 31.5054 31.3125 32.5C31.3125 33.4946 30.9174 34.4484 30.2141 35.1516C29.5109 35.8549 28.5571 36.25 27.5625 36.25C26.5679 36.25 25.6141 35.8549 24.9109 35.1516C24.2076 34.4484 23.8125 33.4946 23.8125 32.5ZM52.5625 28.75C53.5571 28.75 54.5109 29.1451 55.2142 29.8483C55.9174 30.5516 56.3125 31.5054 56.3125 32.5C56.3125 33.4946 55.9174 34.4484 55.2142 35.1516C54.5109 35.8549 53.5571 36.25 52.5625 36.25C51.5679 36.25 50.6141 35.8549 49.9109 35.1516C49.2076 34.4484 48.8125 33.4946 48.8125 32.5C48.8125 31.5054 49.2076 30.5516 49.9109 29.8483C50.6141 29.1451 51.5679 28.75 52.5625 28.75Z" fill="#00DCA5"/>
</svg>
