<svg width="124" height="25" viewBox="0 0 124 25" fill="none" xmlns="http://www.w3.org/2000/svg">
<path d="M0.0465436 0V12.4767H6.28492C6.23836 14.1061 5.54005 15.6425 4.37618 16.8063C3.2123 17.9702 1.67597 18.622 0.0465436 18.7151V24.9534C1.67597 24.9534 3.25885 24.581 4.74861 23.9758C6.23837 23.324 7.63502 22.4395 8.79889 21.2756C9.96277 20.1117 10.8939 18.7616 11.4991 17.2253C12.1508 15.6425 12.4767 14.013 12.4767 12.2905V0H0H0.0465436Z" fill="white"/>
<path d="M84.0317 8.56612V6.47115H84.9628V11.3129H84.0317V9.35755H81.8436V11.3129H80.9125V6.47115H81.8436V8.56612H84.0317ZM76.3967 7.21603H77.7002V11.2663H78.6313V7.21603H79.9348V6.42459H76.3967V7.21603ZM74.4879 9.49722C74.4879 9.68344 74.4414 9.86966 74.3483 10.0559C74.2551 10.2421 74.1155 10.3352 73.9758 10.4283C73.7896 10.5214 73.6034 10.568 73.4172 10.568C73.2309 10.568 72.9982 10.568 72.8585 10.4283C72.6723 10.3352 72.5792 10.1955 72.4861 10.0559C72.3929 9.91621 72.3464 9.72999 72.3464 9.49722V6.42459H71.4153V9.54377C71.4153 9.86966 71.5084 10.1955 71.6946 10.4749C71.8808 10.7542 72.1136 10.987 72.3929 11.1266C72.7188 11.2663 73.0447 11.3594 73.4172 11.3594C73.7896 11.3594 74.162 11.2663 74.4414 11.1266C74.7673 10.987 75 10.7542 75.1397 10.4749C75.3259 10.1955 75.419 9.86966 75.419 9.54377V6.42459H74.4879V9.49722ZM69.5996 7.07636C69.8324 7.30914 70.0186 7.58846 70.1583 7.86779C70.298 8.14712 70.3445 8.51956 70.3445 8.84545C70.3445 9.17133 70.298 9.54377 70.1583 9.8231C70.0186 10.1024 69.8324 10.3818 69.5996 10.6145C69.3669 10.8473 69.0875 11.0335 68.7617 11.1266C68.4358 11.2663 68.1099 11.3129 67.6909 11.3129C67.2719 11.3129 66.946 11.2663 66.6201 11.1266C66.2942 10.987 66.0149 10.8473 65.7821 10.6145C65.5494 10.3818 65.3631 10.1024 65.2235 9.8231C65.0838 9.49722 65.0373 9.17133 65.0373 8.84545C65.0373 8.51956 65.0838 8.14712 65.2235 7.86779C65.3631 7.58846 65.5494 7.30914 65.7821 7.07636C66.0149 6.84359 66.2942 6.65737 66.6201 6.56426C66.946 6.42459 67.3185 6.37804 67.6909 6.37804C68.0633 6.37804 68.4358 6.42459 68.7617 6.56426C69.0875 6.70392 69.3669 6.84359 69.5996 7.07636ZM69.3203 9.54377C69.4134 9.35755 69.46 9.12478 69.46 8.84545C69.46 8.56612 69.46 8.3799 69.3203 8.14712C69.2272 7.96091 69.1341 7.77469 68.9479 7.58847C68.8082 7.4488 68.622 7.30914 68.3892 7.21603C68.1565 7.12292 67.9702 7.07636 67.6909 7.07636C67.4116 7.07636 67.2254 7.07636 66.9926 7.21603C66.7598 7.30914 66.6201 7.40225 66.4339 7.58847C66.2942 7.72813 66.1546 7.91435 66.0615 8.14712C65.9684 8.33334 65.9218 8.56612 65.9218 8.84545C65.9218 9.12478 65.9218 9.311 66.0615 9.54377C66.1546 9.72999 66.2477 9.91621 66.4339 10.1024C66.5736 10.2421 66.7598 10.3818 66.9926 10.4749C67.2254 10.568 67.4116 10.6145 67.6909 10.6145C67.9702 10.6145 68.1565 10.6145 68.3892 10.4749C68.622 10.3818 68.7616 10.2887 68.9479 10.1024C69.0875 9.96277 69.2272 9.77655 69.3203 9.54377ZM50.7914 6.42459H52.0019L53.771 11.2663H52.7468L52.3743 10.2421H50.419L50.0466 11.2663H49.0224L50.7914 6.42459ZM50.6984 9.45066H52.1415L51.4432 7.40224L50.7449 9.45066H50.6984ZM45.4842 11.2663H46.4153V9.311H48.5568V8.51956H46.4153V7.16947H48.8827V6.37804H45.4842V11.2197V11.2663ZM61.5456 8.61267L59.8696 6.42459H58.9851V11.2663H59.9162V7.91435L61.4991 9.96277H61.5922L63.1751 7.9609V11.2663H64.1062V6.42459H63.2216L61.5456 8.61267ZM55.6797 6.42459H54.7486V11.2663H57.8678V10.4749H55.6797V6.42459ZM91.4805 8.892L90.6425 10.149L91.6667 11.2663H90.5959L90.1304 10.8008C90.0838 10.8473 89.9907 10.8939 89.9442 10.9404C89.8045 11.0335 89.6183 11.1266 89.432 11.2197C89.2458 11.3129 89.013 11.3129 88.7337 11.3129C88.4544 11.3129 88.1285 11.2663 87.8957 11.1266C87.663 10.987 87.4767 10.8473 87.3371 10.6611C87.1974 10.4749 87.1509 10.2421 87.1509 9.96277C87.1509 9.68344 87.1509 9.54377 87.2905 9.40411C87.3836 9.21789 87.4767 9.12478 87.6164 8.98511C87.7561 8.892 87.8492 8.75234 87.9888 8.70578C88.0354 8.70578 88.0819 8.65923 88.1285 8.61267C88.1285 8.61267 88.0354 8.51956 88.0354 8.47301C87.9423 8.33334 87.8492 8.19368 87.7561 8.05401C87.7095 7.91435 87.663 7.72813 87.663 7.54191C87.663 7.35569 87.7095 7.07636 87.8492 6.89014C87.9888 6.70392 88.1285 6.56426 88.3613 6.47115C88.5475 6.37804 88.7803 6.33148 89.0596 6.33148C89.3389 6.33148 89.5252 6.37804 89.7579 6.47115C89.9441 6.56426 90.1304 6.70392 90.2235 6.89014C90.3631 7.07636 90.4097 7.26258 90.4097 7.49536C90.4097 7.72813 90.3631 7.9609 90.2235 8.10057C90.1304 8.28679 89.9907 8.42645 89.8045 8.51956C89.6648 8.61267 89.5251 8.70578 89.432 8.75234L90.1304 9.49722L90.6425 8.84545H91.5736L91.4805 8.892ZM88.6406 7.16947C88.5475 7.26258 88.5009 7.40225 88.5009 7.54191C88.5009 7.68157 88.5009 7.77468 88.5941 7.86779C88.6406 7.9609 88.6872 8.05401 88.7803 8.14712C88.7803 8.14712 88.8734 8.24023 88.8734 8.28679C88.9665 8.24023 89.0596 8.19368 89.1527 8.14712C89.2924 8.05401 89.3855 8.00746 89.432 7.91435C89.5251 7.82124 89.5252 7.72813 89.5252 7.58847C89.5252 7.4488 89.4786 7.30914 89.3855 7.21603C89.2924 7.12292 89.1527 7.07636 89.0131 7.07636C88.8734 7.07636 88.7337 7.12292 88.6406 7.21603V7.16947ZM89.432 10.3818C89.4786 10.3352 89.5717 10.2887 89.6183 10.1955L88.6872 9.21789C88.6872 9.21789 88.5941 9.26444 88.5475 9.311C88.4544 9.40411 88.3613 9.49722 88.2682 9.59033C88.175 9.68344 88.1751 9.8231 88.1751 10.0093C88.1751 10.1955 88.2216 10.3352 88.3613 10.4283C88.5009 10.5214 88.6406 10.568 88.8734 10.568C89.1062 10.568 89.1061 10.568 89.1993 10.5214C89.2924 10.5214 89.3855 10.4283 89.4786 10.3818H89.432ZM108.333 7.16947H109.683V11.2197H110.615V7.16947H111.918V6.37804H108.333V7.16947ZM93.8548 11.2197H97.2998V10.4283H94.8324V9.17133H97.1602V8.3799H94.8324V7.12292H97.2998V6.33148H93.8548V11.1732V11.2197ZM121.602 11.2197H120.531L119.46 9.45066H118.575V11.2197H117.644V6.37804H119.553C119.926 6.37804 120.205 6.42459 120.484 6.56426C120.764 6.70392 120.95 6.84359 121.136 7.07636C121.276 7.30914 121.369 7.58846 121.369 7.91435C121.369 8.24023 121.276 8.51956 121.136 8.75234C120.95 8.98511 120.717 9.17133 120.438 9.26444L121.602 11.2197ZM120.298 8.28679C120.345 8.19368 120.391 8.05401 120.391 7.91435C120.391 7.77468 120.391 7.63502 120.298 7.54191C120.251 7.4488 120.112 7.35569 120.019 7.26258C119.879 7.21603 119.739 7.16947 119.553 7.16947H118.575V8.65923H119.553C119.739 8.65923 119.879 8.65923 120.019 8.56612C120.158 8.51956 120.251 8.42645 120.298 8.28679ZM112.989 11.2197H116.434V10.4283H113.966V9.17133H116.294V8.3799H113.966V7.12292H116.434V6.33148H112.989V11.1732V11.2197ZM103.724 11.2197H107.169V10.4283H104.702V9.17133H107.03V8.3799H104.702V7.12292H107.169V6.33148H103.724V11.1732V11.2197ZM102.654 6.37804H101.583L100.466 8.00746L99.3483 6.37804H98.2775L99.9535 8.79889L98.2775 11.2663H99.3483L100.466 9.63688L101.583 11.2663H102.654L100.978 8.79889L102.654 6.37804Z" fill="white"/>
<path d="M90.5028 24.9534C88.2682 24.9534 86.9181 23.5102 86.9181 21.1359V13.5475H89.4321V21.229C89.4321 22.3464 89.8511 22.905 90.689 22.905C91.527 22.905 91.946 22.3464 91.946 21.229V13.5475H94.1807V21.1359C94.1807 23.4637 92.784 24.9534 90.5959 24.9534H90.5028ZM110.94 24.9534C108.473 24.9534 106.937 22.7188 106.937 19.0875C106.937 15.4562 108.473 13.2216 110.94 13.2216C113.408 13.2216 114.944 15.4562 114.944 19.0875C114.944 22.7188 113.408 24.9534 110.94 24.9534ZM110.94 15.27C110.056 15.27 109.59 16.5735 109.59 19.0875C109.59 21.6015 110.056 22.905 110.94 22.905C111.825 22.905 112.244 21.6015 112.244 19.0875C112.244 16.5735 111.778 15.27 110.94 15.27ZM120.531 24.6741L118.063 18.6685V24.6741H116.015V13.594H118.529L120.996 19.6462V13.594H123.045V24.6741H120.531ZM103.352 24.6741V13.594H105.866V24.6741H103.352ZM99.7207 24.6741L97.2533 18.6685V24.6741H95.2049V13.594H97.7189L100.186 19.6462V13.594H102.235V24.6741H99.7207ZM21.6015 11.4525V2.42084H19.5531V0.372425H26.1639V2.42084H24.1155V11.4525H21.6015ZM35.5215 11.4525V0.325871H41.2477V2.37429H38.0354V4.88825H40.8287V6.84356H38.0354V9.35753H41.2477V11.4059H35.5215V11.4525ZM31.9833 11.4525V6.93667H29.7487V11.4525H27.2347V0.325871H29.7487V4.8417H31.9833V0.325871H34.4972V11.4059H31.9833V11.4525ZM81.5643 13.594V16.0614H82.7747C82.7747 16.3873 82.6351 16.6667 82.4023 16.8994C82.1695 17.1322 81.8902 17.2719 81.5643 17.2719V18.4823C81.8902 18.4823 82.2161 18.3892 82.4954 18.2961C82.7747 18.1564 83.0541 17.9702 83.2868 17.7374C83.5196 17.5046 83.7058 17.2253 83.8455 16.946C83.9851 16.6201 84.0317 16.2942 84.0317 15.9683V13.5475H81.5643V13.594ZM76.9088 25C75.838 25 74.9069 24.6275 74.3017 23.9292C73.6499 23.1843 73.3706 22.1136 73.5568 20.8566V20.7635H76.0242V20.9031C75.838 21.6015 75.8846 22.2532 76.2105 22.6257C76.3967 22.8585 76.676 22.9981 77.0019 22.9981C77.6071 22.9981 78.0261 22.5791 78.0261 21.9739C78.0261 21.3687 77.3278 20.81 76.5364 20.3445C76.3967 20.2514 76.2105 20.1583 76.0708 20.0652C74.3948 18.9944 73.6034 17.9236 73.6034 16.5735C73.6034 15.2234 75 13.3147 76.9553 13.3147C78.9107 13.3147 78.8641 13.6871 79.4693 14.3855C80.0745 15.0838 80.3073 16.0614 80.1676 17.1322V17.2253H77.8399V17.0856C77.9796 16.4804 77.8864 15.9683 77.6537 15.689C77.4674 15.4562 77.2347 15.3631 76.9553 15.3631C76.4432 15.3631 76.0708 15.7356 76.0708 16.2942C76.0708 16.8529 76.5829 17.3184 77.4675 17.8771C77.6071 17.9702 77.7002 18.0167 77.8399 18.1099C79.7952 19.3668 80.4935 20.3445 80.4935 21.6946C80.4935 23.0447 80.1211 23.5568 79.3762 24.162C78.7244 24.7207 77.8399 25 76.8622 25M22.9516 25C21.8809 25 20.9498 24.6275 20.3446 23.9292C19.6928 23.1843 19.4134 22.1136 19.5997 20.8566V20.7635H22.0671V20.9031C21.8809 21.6015 21.9274 22.2532 22.2533 22.6257C22.4395 22.8585 22.7189 22.9981 23.0447 22.9981C23.65 22.9981 24.069 22.5791 24.069 21.9739C24.069 21.3687 23.3706 20.81 22.5792 20.3445C22.4395 20.2514 22.2533 20.1583 22.1136 20.0652C20.4377 18.9944 19.6462 17.9236 19.6462 16.5735C19.6462 15.2234 21.0429 13.3147 22.9982 13.3147C24.9535 13.3147 24.9069 13.6871 25.5121 14.3855C26.1174 15.0838 26.3501 16.0614 26.2105 17.1322V17.2253H23.8827V17.0856C24.0224 16.4804 23.9293 15.9683 23.6965 15.689C23.5103 15.4562 23.2775 15.3631 22.9982 15.3631C22.4861 15.3631 22.1136 15.7356 22.1136 16.2942C22.1136 16.8529 22.6257 17.3184 23.5103 17.8771C23.65 17.9702 23.7431 18.0167 23.8827 18.1099C25.838 19.3668 26.5364 20.3445 26.5364 21.6946C26.5364 23.0447 26.1639 23.5568 25.419 24.162C24.7673 24.7207 23.8827 25 22.9051 25M29.0503 24.6741V15.6424H27.0019V13.594H33.6127V15.6424H31.5643V24.6741H29.0503ZM45.8101 22.6257C46.8343 22.6257 47.4861 21.3221 47.4861 19.1341C47.4861 16.946 46.8809 15.5959 45.8101 15.5959H45.3446V22.5791H45.8101V22.6257ZM42.8306 24.6741V13.594H45.8567C48.3241 13.594 50.1397 15.9218 50.1397 19.1806C50.1397 22.4395 48.3706 24.7207 45.8567 24.7207H42.8306V24.6741ZM51.1174 24.6741V13.594H56.8436V15.6424H53.6313V18.1564H56.4246V20.1117H53.6313V22.6257H56.8436V24.6741H51.1174ZM62.4768 24.6741L60.0094 18.6685V24.6741H57.9609V13.594H60.4749L62.9423 19.6462V13.594H64.9907V24.6741H62.4768ZM68.0634 24.6741V15.6424H66.0149V13.594H72.6257V15.6424H70.5773V24.6741H68.0634ZM38.1285 25C35.8939 25 34.5438 23.5568 34.5438 21.1825V13.594H37.0578V21.2756C37.0578 22.3929 37.4768 22.9516 38.3148 22.9516C39.1527 22.9516 39.5717 22.3929 39.5717 21.2756V13.594H41.8064V21.1825C41.8064 23.5102 40.4097 25 38.2216 25" fill="white"/>
</svg>
