<svg width="50" height="50" viewBox="0 0 50 50" fill="none" xmlns="http://www.w3.org/2000/svg">
<path d="M3.125 25C3.125 12.9199 12.9199 3.125 25 3.125C37.0801 3.125 46.875 12.9199 46.875 25C46.875 35.5859 39.3652 44.4141 29.375 46.4355C28.5254 46.6113 27.9785 47.4316 28.1543 48.2812C28.3301 49.1309 29.1504 49.6777 30 49.502C41.4062 47.1875 50 37.0996 50 25C50 11.1914 38.8086 0 25 0C11.1914 0 0 11.1914 0 25C0 27.3047 0.3125 29.541 0.898438 31.6699C1.13281 32.5 1.99219 32.9883 2.82227 32.7637C3.65234 32.5391 4.14062 31.6699 3.91602 30.8398C3.4082 28.9844 3.125 27.0312 3.125 25.0098V25ZM19.248 25.0781C18.4277 24.8047 17.5488 25.2441 17.2754 26.0645C17.002 26.8848 17.4414 27.7637 18.2617 28.0371L25.1465 30.332L15.625 34.0625V31.25C15.625 28.6621 13.5254 26.5625 10.9375 26.5625C8.34961 26.5625 6.25 28.6621 6.25 31.25V42.9688C6.25 46.8555 9.39453 50 13.2812 50H17.9492C20.8203 50 23.4082 48.252 24.4824 45.5762L26.8164 39.7559L31.4062 37.959C33.4473 37.1582 34.6094 35.0879 34.3457 33.0078C34.1211 31.1816 32.8711 29.6191 31.0938 29.0234L19.248 25.0781ZM31.25 33.4668C31.25 33.5059 31.25 33.5547 31.25 33.5938C31.25 34.2188 30.8691 34.8047 30.2539 35.0488L25.0293 37.0898C24.6094 37.2559 24.2773 37.5977 24.1309 38.0176C24.1211 38.0371 24.1211 38.0566 24.1113 38.0762L21.5723 44.4141C20.9766 45.8984 19.541 46.875 17.9492 46.875H13.2812C11.123 46.875 9.375 45.127 9.375 42.9688V31.25C9.375 30.3906 10.0781 29.6875 10.9375 29.6875C11.7969 29.6875 12.5 30.3906 12.5 31.25V36.3477C12.5 36.8652 12.7539 37.3438 13.1836 37.6367C13.6133 37.9297 14.1504 37.9883 14.6387 37.8027L29.1211 32.1387C29.9219 31.8262 30.8301 32.2168 31.1426 33.0273C31.2012 33.1738 31.2305 33.3203 31.25 33.4668ZM19.5703 18.75C19.5703 18.1284 19.3234 17.5323 18.8838 17.0927C18.4443 16.6532 17.8482 16.4062 17.2266 16.4062C16.605 16.4062 16.0088 16.6532 15.5693 17.0927C15.1297 17.5323 14.8828 18.1284 14.8828 18.75C14.8828 19.3716 15.1297 19.9677 15.5693 20.4073C16.0088 20.8468 16.605 21.0938 17.2266 21.0938C17.8482 21.0938 18.4443 20.8468 18.8838 20.4073C19.3234 19.9677 19.5703 19.3716 19.5703 18.75ZM32.8516 22.6562C33.4732 22.6562 34.0693 22.4093 34.5088 21.9698C34.9484 21.5302 35.1953 20.9341 35.1953 20.3125C35.1953 19.6909 34.9484 19.0948 34.5088 18.6552C34.0693 18.2157 33.4732 17.9688 32.8516 17.9688C32.23 17.9688 31.6338 18.2157 31.1943 18.6552C30.7547 19.0948 30.5078 19.6909 30.5078 20.3125C30.5078 20.9341 30.7547 21.5302 31.1943 21.9698C31.6338 22.4093 32.23 22.6562 32.8516 22.6562ZM21.1328 14.1406L22.4219 15.2441C23.0762 15.8105 24.0625 15.7324 24.6289 15.0781C25.1953 14.4238 25.1172 13.4375 24.4629 12.8711L23.1738 11.7676C20.1562 9.18945 15.8496 8.78906 12.4121 10.752L11.7188 11.1426C10.9668 11.5723 10.7129 12.5293 11.1328 13.2715C11.5527 14.0137 12.5195 14.2773 13.2617 13.8574L13.9551 13.4668C16.25 12.1582 19.1211 12.4316 21.123 14.1504L21.1328 14.1406Z" fill="#00DCA5"/>
</svg>
